<?xml version="1.0" encoding="UTF-8"?>
<svg width="275px" height="47px" viewBox="0 0 275 47" version="1.1" xmlns="http://www.w3.org/2000/svg" xmlns:xlink="http://www.w3.org/1999/xlink">
    <!-- Generator: Sketch 53.2 (72643) - https://sketchapp.com -->
    <title>Group</title>
    <desc>Created with Sketch.</desc>
    <defs>
        <linearGradient x1="40.4288852%" y1="45.4859045%" x2="50%" y2="54.5140955%" id="linearGradient-1">
            <stop stop-color="#D1E0EA" offset="0%"></stop>
            <stop stop-color="#D9D9BD" offset="100%"></stop>
        </linearGradient>
        <linearGradient x1="42.2226858%" y1="0%" x2="50%" y2="100%" id="linearGradient-2">
            <stop stop-color="#D1E0EA" offset="0%"></stop>
            <stop stop-color="#D9D9BD" offset="100%"></stop>
        </linearGradient>
    </defs>
    <g id="Page-1" stroke="none" stroke-width="1" fill="none" fill-rule="evenodd">
        <g id="Artboard" transform="translate(-161.000000, -130.000000)">
            <g id="Group" transform="translate(161.000000, 121.000000)">
                <text id="MUSICER" fill="url(#linearGradient-1)" font-family="Manrope-ExtraBold, Manrope" font-size="47" font-weight="700">
                    <tspan x="64" y="50">MUSICER</tspan>
                </text>
                <g id="3d-select-edge" transform="translate(0.000000, 9.000000)">
                    <path d="M42,12.57955 L42,34.42045 C42.0002473,34.9331322 41.7241682,35.4055492 41.279,35.6542 L21.679,46.6193 C21.2566363,46.8552134 20.7433637,46.8552134 20.321,46.6193 L0.721,35.6542 C0.275831838,35.4055492 -0.000247286377,34.9331322 2.22044605e-16,34.42045 L2.22044605e-16,12.57955 C0.000600300917,12.0677094 0.276562202,11.5963925 0.721,11.34815 L20.321,0.3807 C20.7433637,0.144786604 21.2566363,0.144786604 21.679,0.3807 L41.279,11.34815 C41.7234378,11.5963925 41.9993997,12.0677094 42,12.57955 L42,12.57955 Z M21,44.65 L21,23.5 L21,44.65 Z" id="Shape" fill="url(#linearGradient-2)"></path>
                    <path d="M22.1666667,21.15 L22.1666667,44.65 C22.1666667,45.2989346 21.6443322,45.825 21,45.825 C20.3556678,45.825 19.8333333,45.2989346 19.8333333,44.65 L19.8333333,21.15 C19.8333333,20.5010654 20.3556678,19.975 21,19.975 C21.6443322,19.975 22.1666667,20.5010654 22.1666667,21.15 Z" id="Path" fill-rule="nonzero"></path>
                </g>
            </g>
        </g>
    </g>
</svg>